<mxfile host="app.diagrams.net" modified="2022-04-22T06:47:46.147Z" agent="5.0 (Windows NT 6.1; Win64; x64) AppleWebKit/537.36 (KHTML, like Gecko) Chrome/100.0.4896.88 Safari/537.36" etag="H8A4SmaBKUrGf3KRxqEM" version="17.4.6" type="github">
  <diagram id="prtHgNgQTEPvFCAcTncT" name="Page-1">
    <mxGraphModel dx="758" dy="820" grid="1" gridSize="10" guides="1" tooltips="1" connect="1" arrows="1" fold="1" page="1" pageScale="1" pageWidth="827" pageHeight="1169" math="0" shadow="0">
      <root>
        <mxCell id="0" />
        <mxCell id="1" parent="0" />
        <mxCell id="MORdbSGoh7WvCn24L1Ke-27" style="edgeStyle=orthogonalEdgeStyle;rounded=0;orthogonalLoop=1;jettySize=auto;html=1;" edge="1" parent="1" source="MORdbSGoh7WvCn24L1Ke-1" target="MORdbSGoh7WvCn24L1Ke-2">
          <mxGeometry relative="1" as="geometry">
            <Array as="points">
              <mxPoint x="380" y="220" />
              <mxPoint x="220" y="220" />
            </Array>
          </mxGeometry>
        </mxCell>
        <mxCell id="MORdbSGoh7WvCn24L1Ke-28" style="edgeStyle=orthogonalEdgeStyle;rounded=0;orthogonalLoop=1;jettySize=auto;html=1;entryX=0.5;entryY=0;entryDx=0;entryDy=0;" edge="1" parent="1" source="MORdbSGoh7WvCn24L1Ke-1" target="MORdbSGoh7WvCn24L1Ke-4">
          <mxGeometry relative="1" as="geometry">
            <Array as="points">
              <mxPoint x="380" y="220" />
              <mxPoint x="540" y="220" />
            </Array>
          </mxGeometry>
        </mxCell>
        <mxCell id="MORdbSGoh7WvCn24L1Ke-1" value="数据采集模块" style="rounded=0;whiteSpace=wrap;html=1;" vertex="1" parent="1">
          <mxGeometry x="320" y="160" width="120" height="40" as="geometry" />
        </mxCell>
        <mxCell id="MORdbSGoh7WvCn24L1Ke-18" style="edgeStyle=orthogonalEdgeStyle;rounded=0;orthogonalLoop=1;jettySize=auto;html=1;entryX=0.5;entryY=0;entryDx=0;entryDy=0;" edge="1" parent="1" source="MORdbSGoh7WvCn24L1Ke-2" target="MORdbSGoh7WvCn24L1Ke-7">
          <mxGeometry relative="1" as="geometry">
            <Array as="points">
              <mxPoint x="220" y="300" />
              <mxPoint x="140" y="300" />
            </Array>
          </mxGeometry>
        </mxCell>
        <mxCell id="MORdbSGoh7WvCn24L1Ke-19" style="edgeStyle=orthogonalEdgeStyle;rounded=0;orthogonalLoop=1;jettySize=auto;html=1;entryX=0.5;entryY=0;entryDx=0;entryDy=0;" edge="1" parent="1" source="MORdbSGoh7WvCn24L1Ke-2" target="MORdbSGoh7WvCn24L1Ke-9">
          <mxGeometry relative="1" as="geometry">
            <Array as="points">
              <mxPoint x="220" y="300" />
              <mxPoint x="300" y="300" />
            </Array>
          </mxGeometry>
        </mxCell>
        <mxCell id="MORdbSGoh7WvCn24L1Ke-20" style="edgeStyle=orthogonalEdgeStyle;rounded=0;orthogonalLoop=1;jettySize=auto;html=1;entryX=0.5;entryY=0;entryDx=0;entryDy=0;" edge="1" parent="1" source="MORdbSGoh7WvCn24L1Ke-2" target="MORdbSGoh7WvCn24L1Ke-8">
          <mxGeometry relative="1" as="geometry">
            <Array as="points">
              <mxPoint x="220" y="300" />
              <mxPoint x="190" y="300" />
            </Array>
          </mxGeometry>
        </mxCell>
        <mxCell id="MORdbSGoh7WvCn24L1Ke-21" style="edgeStyle=orthogonalEdgeStyle;rounded=0;orthogonalLoop=1;jettySize=auto;html=1;entryX=0.5;entryY=0;entryDx=0;entryDy=0;" edge="1" parent="1" source="MORdbSGoh7WvCn24L1Ke-2" target="MORdbSGoh7WvCn24L1Ke-10">
          <mxGeometry relative="1" as="geometry">
            <Array as="points">
              <mxPoint x="220" y="300" />
              <mxPoint x="250" y="300" />
            </Array>
          </mxGeometry>
        </mxCell>
        <mxCell id="MORdbSGoh7WvCn24L1Ke-2" value="数据采集项目" style="rounded=0;whiteSpace=wrap;html=1;" vertex="1" parent="1">
          <mxGeometry x="160" y="250" width="120" height="40" as="geometry" />
        </mxCell>
        <mxCell id="MORdbSGoh7WvCn24L1Ke-23" style="edgeStyle=orthogonalEdgeStyle;rounded=0;orthogonalLoop=1;jettySize=auto;html=1;entryX=0.5;entryY=0;entryDx=0;entryDy=0;" edge="1" parent="1" source="MORdbSGoh7WvCn24L1Ke-4" target="MORdbSGoh7WvCn24L1Ke-12">
          <mxGeometry relative="1" as="geometry" />
        </mxCell>
        <mxCell id="MORdbSGoh7WvCn24L1Ke-26" style="edgeStyle=orthogonalEdgeStyle;rounded=0;orthogonalLoop=1;jettySize=auto;html=1;entryX=0.5;entryY=0;entryDx=0;entryDy=0;" edge="1" parent="1" source="MORdbSGoh7WvCn24L1Ke-4" target="MORdbSGoh7WvCn24L1Ke-13">
          <mxGeometry relative="1" as="geometry">
            <Array as="points">
              <mxPoint x="540" y="300" />
              <mxPoint x="590" y="300" />
            </Array>
          </mxGeometry>
        </mxCell>
        <mxCell id="MORdbSGoh7WvCn24L1Ke-30" style="edgeStyle=orthogonalEdgeStyle;rounded=0;orthogonalLoop=1;jettySize=auto;html=1;entryX=0.5;entryY=0;entryDx=0;entryDy=0;" edge="1" parent="1" source="MORdbSGoh7WvCn24L1Ke-4" target="MORdbSGoh7WvCn24L1Ke-11">
          <mxGeometry relative="1" as="geometry">
            <Array as="points">
              <mxPoint x="540" y="300" />
              <mxPoint x="490" y="300" />
            </Array>
          </mxGeometry>
        </mxCell>
        <mxCell id="MORdbSGoh7WvCn24L1Ke-4" value="分布式爬虫管理平台" style="rounded=0;whiteSpace=wrap;html=1;" vertex="1" parent="1">
          <mxGeometry x="480" y="250" width="120" height="40" as="geometry" />
        </mxCell>
        <mxCell id="MORdbSGoh7WvCn24L1Ke-7" value="采集脚本" style="rounded=0;whiteSpace=wrap;html=1;" vertex="1" parent="1">
          <mxGeometry x="130" y="320" width="20" height="190" as="geometry" />
        </mxCell>
        <mxCell id="MORdbSGoh7WvCn24L1Ke-8" value="随机代理" style="rounded=0;whiteSpace=wrap;html=1;" vertex="1" parent="1">
          <mxGeometry x="180" y="320" width="20" height="190" as="geometry" />
        </mxCell>
        <mxCell id="MORdbSGoh7WvCn24L1Ke-9" value="图片上传" style="rounded=0;whiteSpace=wrap;html=1;" vertex="1" parent="1">
          <mxGeometry x="290" y="320" width="20" height="190" as="geometry" />
        </mxCell>
        <mxCell id="MORdbSGoh7WvCn24L1Ke-10" value="数据入库" style="rounded=0;whiteSpace=wrap;html=1;" vertex="1" parent="1">
          <mxGeometry x="240" y="320" width="20" height="190" as="geometry" />
        </mxCell>
        <mxCell id="MORdbSGoh7WvCn24L1Ke-11" value="项目上传" style="rounded=0;whiteSpace=wrap;html=1;" vertex="1" parent="1">
          <mxGeometry x="480" y="320" width="20" height="190" as="geometry" />
        </mxCell>
        <mxCell id="MORdbSGoh7WvCn24L1Ke-12" value="项目定时" style="rounded=0;whiteSpace=wrap;html=1;" vertex="1" parent="1">
          <mxGeometry x="530" y="320" width="20" height="190" as="geometry" />
        </mxCell>
        <mxCell id="MORdbSGoh7WvCn24L1Ke-13" value="项目同步" style="rounded=0;whiteSpace=wrap;html=1;" vertex="1" parent="1">
          <mxGeometry x="580" y="320" width="20" height="190" as="geometry" />
        </mxCell>
      </root>
    </mxGraphModel>
  </diagram>
</mxfile>
